<?xml version="1.0" standalone="no"?>
<!DOCTYPE svg PUBLIC "-//W3C//DTD SVG 20010904//EN"
 "http://www.w3.org/TR/2001/REC-SVG-20010904/DTD/svg10.dtd">
<svg version="1.0" xmlns="http://www.w3.org/2000/svg"
 width="628.000000pt" height="628.000000pt" viewBox="0 0 628.000000 628.000000"
 preserveAspectRatio="xMidYMid meet">
<metadata>
Created by potrace 1.11, written by Peter Selinger 2001-2013
</metadata>
<g transform="translate(0.000000,628.000000) scale(0.100000,-0.100000)"
fill="#000000" stroke="none">
<path d="M377 6238 c-6 -47 -32 -86 -69 -107 -22 -13 -32 -13 -69 -2 -24 8
-59 18 -78 24 -19 5 -57 32 -83 58 -80 80 -78 83 -78 -191 0 -132 4 -240 8
-240 5 0 9 13 9 29 0 60 48 87 127 72 28 -6 67 -13 86 -16 41 -6 87 -45 96
-80 7 -27 -39 -110 -84 -152 -22 -20 -22 -22 -5 -27 11 -3 24 -21 31 -39 12
-33 6 -103 -9 -113 -5 -3 -9 -14 -9 -25 0 -25 37 -99 50 -99 25 0 18 -44 -20
-119 -34 -68 -41 -90 -39 -134 1 -28 7 -60 13 -70 15 -24 -4 -51 -38 -55 -21
-3 -29 2 -33 18 -4 13 -11 19 -20 16 -8 -3 -21 -6 -29 -6 -16 0 -18 -22 -5
-48 6 -9 13 -30 16 -47 7 -29 7 -29 16 -7 13 35 36 27 43 -15 8 -50 8 -118 -1
-126 -18 -19 -10 -62 18 -96 59 -72 24 -160 -60 -148 -46 6 -114 71 -132 126
-11 31 -10 50 8 205 4 39 2 52 -11 62 -14 10 -15 18 -5 55 19 73 22 125 8 150
-7 13 -16 42 -20 64 -3 22 -7 -1129 -8 -2557 l-1 -2598 1140 0 1141 0 -29 43
c-16 23 -75 127 -131 231 -56 103 -129 229 -162 280 -67 101 -197 354 -222
431 -9 28 -21 71 -25 96 -10 50 1 158 16 168 14 9 59 101 66 138 4 18 3 41 -3
52 -7 13 -8 22 -1 26 9 6 6 40 -7 75 -4 8 -7 52 -8 98 -1 57 -6 86 -15 92 -8
5 -13 35 -15 88 -2 44 -6 86 -10 92 -3 6 -3 24 0 41 6 27 5 30 -11 25 -15 -4
-23 3 -36 37 -10 23 -18 60 -18 81 0 34 -2 38 -21 33 -12 -3 -29 -2 -38 3 -9
5 -38 12 -66 15 -48 6 -55 11 -151 109 -65 67 -116 130 -145 179 -45 79 -103
169 -174 272 l-40 58 -3 160 c-4 205 7 247 85 316 62 55 79 97 61 148 -13 36
-32 42 -47 16 -16 -28 -13 -1 8 59 26 75 31 152 11 154 -43 3 -43 3 -25 30 12
19 14 29 6 37 -19 19 -12 84 14 131 28 50 31 67 13 64 -7 -2 -14 7 -16 20 -2
12 -8 20 -13 17 -11 -7 2 28 32 86 16 32 18 44 8 49 -7 5 -9 17 -6 30 6 22 6
22 -16 3 -34 -31 -44 -34 -51 -16 -4 10 -4 14 0 10 4 -4 16 12 26 34 22 50 22
50 4 43 -12 -5 -14 8 -12 73 2 43 9 103 15 133 6 30 14 79 16 108 3 29 9 61
15 72 5 10 10 40 10 66 0 38 7 58 37 101 34 50 57 100 68 148 7 31 33 81 50
95 21 17 19 1 -5 -35 -11 -16 -20 -39 -19 -50 0 -19 1 -19 9 1 5 12 14 25 21
30 8 4 10 3 5 -4 -4 -7 -2 -12 4 -12 7 0 9 8 5 19 -4 13 2 23 20 35 14 9 31
28 37 41 7 15 18 23 29 22 31 -5 33 -16 8 -37 -25 -23 -59 -70 -59 -84 0 -4 7
-5 16 -2 12 4 14 1 9 -14 -10 -31 19 -25 48 10 24 28 45 42 32 20 -3 -5 -1
-10 4 -10 6 0 11 5 11 11 0 5 5 7 10 4 6 -3 10 1 10 11 0 13 3 14 15 4 12 -10
15 -9 15 4 0 20 23 46 40 46 6 0 9 3 7 8 -3 4 6 8 19 8 22 2 23 0 10 -25 -20
-39 -28 -71 -19 -71 5 0 17 17 28 38 11 24 19 32 23 23 3 -8 0 -17 -7 -19 -17
-6 -13 -51 7 -63 13 -8 17 -20 13 -48 -3 -29 -5 -32 -12 -16 -6 16 -8 14 -8
-12 -1 -18 -5 -33 -11 -33 -5 0 -13 -15 -19 -32 -31 -101 -51 -135 -93 -157
-23 -12 -46 -47 -39 -59 1 -2 -5 -9 -13 -15 -9 -7 -17 -26 -19 -42 -2 -17 -7
-36 -11 -43 -11 -18 24 -15 45 4 27 24 43 7 18 -19 -32 -34 -52 -67 -45 -74 3
-4 12 0 19 9 6 8 27 22 44 29 24 10 31 19 27 31 -3 11 4 22 23 33 l28 16 -32
-6 c-41 -8 -45 11 -5 26 24 9 25 11 9 21 -16 9 -14 12 21 35 26 17 47 42 60
72 11 25 39 66 61 91 23 24 41 47 41 51 0 4 6 14 13 21 14 15 46 63 64 96 7
12 10 29 6 37 -3 8 0 15 6 15 6 0 11 -5 11 -12 0 -6 2 -9 5 -6 9 9 -17 68 -30
68 -12 0 -44 -69 -58 -125 -3 -13 -5 -9 -6 13 -1 39 -9 40 -38 5 -20 -26 -22
-26 -23 -7 0 11 5 25 12 32 6 6 8 15 4 19 -4 4 -11 1 -16 -7 -5 -8 -12 -11
-16 -7 -12 11 19 39 38 34 23 -6 33 10 29 47 -2 25 0 28 18 23 24 -6 28 5 7
22 -16 14 -28 51 -16 51 5 0 18 -12 29 -27 18 -25 20 -26 21 -8 0 17 2 17 10
5 6 -10 10 -11 10 -2 0 6 4 12 10 12 5 0 6 -8 3 -17 -6 -14 1 -13 38 8 24 13
50 25 57 25 36 2 43 5 36 15 -3 6 -3 14 2 18 5 3 14 15 20 26 8 14 22 20 45
20 19 0 40 4 47 8 18 12 15 -3 -5 -26 -17 -18 -17 -18 10 -6 15 7 27 16 27 21
0 4 8 8 18 9 10 0 6 4 -11 11 -29 10 -32 35 -3 30 15 -3 20 8 17 36 -1 6 3 12
9 12 6 0 9 -4 6 -9 -3 -5 1 -14 10 -21 8 -7 13 -19 10 -27 -3 -7 1 -13 11 -13
9 0 13 3 10 7 -4 4 7 13 25 20 l33 14 -25 20 c-21 17 -22 19 -3 10 12 -6 29
-11 38 -11 20 0 45 -23 45 -42 0 -9 3 -10 8 -2 4 6 17 14 29 18 12 4 23 17 25
28 2 12 9 23 16 26 11 3 11 1 0 -17 -11 -18 -10 -23 4 -37 15 -15 19 -15 33
-4 15 12 18 12 26 -3 11 -19 29 -23 29 -6 0 6 7 18 16 26 13 13 17 14 24 3 13
-21 39 -20 45 1 8 23 25 15 25 -12 0 -12 7 -19 20 -19 12 0 20 7 20 18 0 13 2
14 9 4 7 -11 9 -11 14 2 4 9 11 16 16 16 6 0 8 -7 5 -15 -8 -20 22 -30 42 -14
14 11 18 10 29 -4 10 -14 14 -15 18 -5 3 10 7 10 17 1 9 -9 10 -19 2 -42 -12
-33 1 -43 17 -13 10 18 51 28 51 11 0 -14 22 -11 42 8 17 15 18 14 18 -15 0
-18 5 -32 10 -32 6 0 10 -6 10 -14 0 -10 9 -13 31 -11 24 3 29 2 20 -9 -13
-16 -4 -27 15 -19 9 3 14 -1 14 -12 0 -9 4 -14 9 -10 5 3 11 -2 13 -10 3 -13
8 -12 41 5 39 21 46 17 22 -15 -14 -17 -13 -20 7 -32 13 -7 35 -12 51 -13 17
0 27 -5 27 -15 0 -10 10 -15 29 -15 16 0 42 -6 58 -14 52 -27 101 -46 117 -46
9 0 24 -4 34 -10 9 -5 43 -21 75 -34 31 -14 57 -29 57 -34 0 -5 23 -12 51 -14
28 -3 55 -11 59 -18 6 -9 23 -11 64 -6 44 5 56 3 56 -8 0 -8 7 -17 15 -20 21
-8 55 15 55 36 0 17 21 23 57 19 8 -1 10 5 7 14 -5 11 -2 14 12 9 11 -4 24
-10 29 -14 14 -11 125 -9 125 1 0 5 -4 9 -8 9 -5 0 -22 11 -38 25 -16 14 -36
26 -44 26 -8 1 -1 4 15 8 17 4 32 4 35 0 3 -4 18 -11 33 -14 19 -5 27 -3 27 6
0 8 5 6 13 -5 11 -15 20 -16 67 -8 53 10 55 9 94 -24 21 -18 43 -31 48 -28 21
14 162 -176 228 -305 39 -79 79 -223 78 -281 -1 -59 12 -229 22 -280 6 -30 14
-122 17 -204 l6 -149 -104 6 c-91 6 -112 11 -160 37 -78 43 -149 66 -159 50
-4 -7 -19 -9 -42 -5 -23 4 -53 0 -93 -14 -50 -18 -64 -19 -103 -9 -37 9 -47 9
-56 -3 -6 -8 -23 -20 -38 -26 -16 -7 -28 -16 -28 -20 0 -5 -24 -8 -53 -8 -53
-1 -120 -27 -184 -73 -17 -12 -49 -24 -72 -28 -22 -4 -41 -11 -41 -16 0 -6 -7
-8 -15 -4 -17 6 -59 -30 -51 -43 8 -13 -73 -21 -101 -10 -13 5 -35 9 -49 9
-17 0 -24 6 -24 18 0 25 -11 34 -25 22 -9 -7 -17 -3 -29 15 -9 14 -25 25 -35
25 -10 0 -21 9 -24 20 -7 27 -27 25 -27 -2 0 -23 -1 -22 -13 2 -14 28 -51 38
-72 20 -11 -9 -19 -8 -37 4 -12 9 -33 16 -46 16 -12 0 -38 6 -56 14 -21 9 -37
11 -43 5 -6 -6 -57 -6 -129 -1 -65 5 -135 7 -154 5 -161 -17 -165 -18 -222
-55 -48 -32 -76 -41 -195 -64 -76 -15 -156 -32 -178 -38 -39 -11 -40 -12 -37
-54 1 -23 -2 -42 -8 -42 -22 0 -9 -40 18 -55 15 -8 41 -27 57 -41 26 -24 30
-34 29 -81 l0 -53 38 -6 c29 -5 39 -12 42 -28 33 -178 44 -210 102 -301 91
-145 259 -226 469 -227 121 -1 193 14 290 62 108 52 176 124 230 244 22 47 43
86 47 86 4 0 11 -12 14 -26 l7 -27 18 24 c21 27 24 55 9 64 -5 3 -10 24 -10
46 0 24 4 38 10 34 15 -9 11 17 -5 39 -15 19 -15 19 -15 -5 0 -13 -5 -31 -11
-39 -8 -12 -9 -10 -5 10 3 14 6 35 6 47 0 16 4 21 15 17 9 -4 15 0 15 9 0 10
7 13 19 10 13 -3 24 5 39 31 20 33 25 36 70 36 27 0 52 -3 56 -7 4 -4 15 -8
24 -8 13 0 18 -13 23 -60 3 -33 10 -71 16 -85 6 -14 17 -44 24 -68 18 -61 35
-71 43 -27 7 34 30 41 25 7 -3 -20 45 -107 99 -177 52 -69 154 -130 242 -146
91 -16 247 -6 329 20 145 48 236 114 315 230 51 76 86 181 86 266 0 52 7 61
58 74 33 9 42 17 43 34 1 17 2 18 6 5 2 -10 9 -18 14 -18 6 0 7 -5 4 -10 -3
-5 1 -10 9 -10 9 0 16 -6 16 -12 1 -19 40 84 40 105 0 21 -2 21 -50 -3 -46
-23 -55 -15 -41 36 9 32 54 84 74 84 9 0 -1 87 -14 111 -5 10 -27 18 -60 22
-28 4 -54 9 -57 12 -3 3 2 21 11 40 9 20 17 52 18 73 1 65 25 187 36 185 6 -1
9 6 6 18 -3 11 -2 19 3 18 21 -4 28 2 14 12 -12 8 -10 9 8 4 28 -8 27 -6 -2
48 -27 47 -22 73 11 63 25 -8 40 -94 23 -127 -7 -11 -10 -21 -8 -22 83 -42
103 -57 106 -78 2 -13 8 -29 14 -36 5 -7 7 -17 3 -23 -3 -6 6 -25 21 -43 43
-51 54 -85 43 -142 -5 -28 -14 -60 -21 -73 -20 -38 28 -96 67 -82 9 3 36 6 80
9 15 1 16 4 7 13 -13 13 -16 50 -5 61 3 4 12 2 20 -4 20 -18 17 10 -7 49 -11
18 -20 40 -20 49 0 14 3 14 21 -3 l22 -19 -8 30 c-4 17 -8 35 -9 41 -1 14 46
76 92 119 32 32 41 55 21 55 -7 0 -9 12 -5 34 4 19 2 37 -3 40 -5 3 -7 15 -4
26 4 14 0 20 -10 20 -9 0 -19 9 -22 21 -6 17 -12 20 -44 14 -31 -5 -42 -2 -64
19 -30 28 -52 33 -60 14 -3 -8 -6 -6 -6 4 -1 10 -10 22 -22 29 -14 7 -19 17
-16 30 3 10 1 19 -4 19 -5 0 -9 6 -9 14 0 8 -7 17 -16 20 -8 3 -12 11 -8 17 5
9 11 7 19 -4 16 -23 25 -21 25 3 0 11 -5 20 -12 20 -15 0 0 15 15 15 7 0 11 9
9 19 -2 10 6 29 18 41 12 13 19 28 16 34 -4 5 1 25 10 44 12 25 22 34 33 29
13 -5 14 -3 4 10 -16 19 -7 28 30 28 20 0 30 6 34 18 9 35 59 54 154 58 79 3
90 2 102 -17 12 -17 15 -17 20 -4 8 19 33 20 41 0 3 -9 0 -15 -9 -15 -18 0
-19 -12 -3 -28 8 -8 5 -14 -16 -22 -15 -5 -26 -16 -25 -22 3 -15 -39 -88 -50
-88 -4 0 -7 -34 -8 -75 -2 -71 0 -76 18 -70 16 6 19 1 19 -32 0 -21 4 -44 9
-52 6 -9 5 -21 -2 -32 -9 -14 -7 -22 6 -37 18 -20 22 -48 8 -56 -5 -4 -12 -29
-16 -56 -4 -27 -11 -53 -17 -56 -6 -4 -18 -25 -28 -47 -17 -37 -17 -42 -3 -52
14 -11 14 -14 -1 -37 -11 -17 -23 -24 -35 -21 -27 7 -34 -11 -37 -91 -2 -39
-6 -91 -10 -115 -4 -28 -2 -46 5 -51 9 -5 9 -14 0 -36 -6 -16 -12 -36 -14 -45
-4 -19 -48 -69 -62 -69 -5 0 -16 -11 -23 -25 -10 -19 -19 -23 -39 -19 -59 13
-90 26 -106 44 -22 25 -41 25 -50 3 -6 -16 -8 -16 -26 6 -10 13 -19 29 -19 37
0 10 -9 9 -41 -5 -23 -11 -46 -25 -50 -32 -12 -18 -1 -105 17 -143 8 -16 14
-37 14 -48 0 -10 6 -18 14 -18 7 0 19 -7 26 -15 11 -13 10 -18 -6 -29 -16 -13
-17 -17 -5 -40 18 -32 8 -45 -17 -23 -10 10 -21 17 -24 17 -8 0 -75 -141 -88
-186 -19 -64 -12 -78 39 -82 42 -3 72 -23 84 -55 3 -9 8 -9 17 0 7 7 22 8 39
3 15 -4 35 -3 44 2 23 12 22 -8 -2 -65 -16 -37 -24 -45 -53 -50 -18 -3 -37 -1
-42 3 -5 5 -16 5 -25 0 -9 -5 -24 -11 -33 -14 -12 -4 -18 -16 -18 -36 0 -20
-5 -30 -15 -30 -11 0 -15 -11 -15 -39 0 -22 -4 -43 -10 -46 -5 -3 -10 1 -10 9
0 21 -16 20 -24 -1 -6 -14 -8 -14 -22 5 -8 12 -21 22 -28 22 -8 0 -16 7 -20
15 -3 9 -19 15 -41 15 -31 0 -35 -3 -35 -25 0 -15 -12 -38 -26 -52 -22 -22
-28 -41 -39 -127 -7 -56 -21 -126 -30 -156 -48 -158 -80 -252 -87 -256 -4 -3
-8 -11 -8 -19 0 -8 -12 -40 -28 -72 -24 -51 -46 -89 -137 -237 -11 -18 -28
-41 -37 -50 -10 -10 -18 -23 -18 -29 0 -7 -18 -23 -40 -36 -33 -21 -39 -28
-33 -49 5 -21 3 -24 -11 -19 -9 4 -15 3 -12 -2 3 -5 -1 -14 -9 -21 -8 -7 -15
-18 -15 -25 0 -7 -7 -16 -16 -19 -8 -3 -12 -10 -9 -16 3 -5 0 -7 -8 -4 -8 3
-17 -2 -20 -10 -4 -9 -11 -16 -18 -16 -6 0 -9 6 -6 14 3 8 -2 16 -13 19 -11 3
-19 2 -18 -2 2 -22 -5 -28 -32 -25 -34 4 -52 -15 -21 -23 12 -3 21 -12 21 -19
0 -18 -14 -18 -30 1 -7 8 -21 15 -32 15 -14 0 -18 5 -14 15 7 19 -8 19 -24 0
-10 -12 -10 -15 4 -15 9 0 16 -6 16 -14 0 -10 -9 -13 -27 -11 -16 2 -33 -1
-40 -7 -16 -13 -53 8 -53 30 1 16 2 16 14 0 15 -20 41 -24 32 -5 -3 6 -9 20
-12 30 -7 19 -29 23 -39 7 -11 -18 -27 -11 -22 10 4 15 0 20 -16 20 -13 0 -17
-3 -11 -8 6 -4 13 -16 16 -27 4 -16 -1 -20 -25 -22 -16 -1 -39 -9 -51 -16 -19
-13 -25 -12 -58 9 -20 13 -39 32 -43 43 -3 10 -14 21 -25 24 -15 4 -18 11 -14
38 4 27 1 37 -15 47 -23 13 -71 6 -71 -10 0 -6 -11 -7 -26 -4 -14 4 -32 2 -39
-4 -10 -8 -19 -8 -34 -1 -30 17 -44 13 -38 -9 4 -16 0 -20 -19 -20 -34 0 -74
-28 -74 -51 0 -22 -32 -39 -38 -21 -2 7 -10 12 -18 12 -9 0 -12 -4 -9 -10 3
-5 2 -10 -4 -10 -5 0 -13 5 -16 10 -3 6 -1 10 4 10 6 0 11 5 11 11 0 7 -14 9
-39 5 -25 -3 -45 0 -57 9 -26 20 -34 18 -34 -6 0 -19 -1 -18 -24 5 -29 33 -84
35 -111 6 -12 -13 -25 -18 -41 -14 -19 5 -22 3 -17 -15 3 -12 12 -21 19 -21
21 0 17 -24 -7 -46 -11 -10 -27 -33 -34 -51 -16 -37 -31 -42 -40 -13 -5 15
-12 18 -36 13 -25 -5 -29 -2 -29 16 0 25 -7 26 -32 4 -18 -16 -23 -10 -19 25
3 20 -55 73 -72 66 -19 -7 -30 25 -21 60 6 26 -8 37 -21 16 -12 -20 -25 -10
-25 19 0 29 0 30 -28 15 -36 -19 -49 -18 -69 5 -9 11 -20 18 -25 15 -5 -3 -4
-12 3 -20 9 -11 9 -18 1 -26 -7 -7 -12 -23 -11 -38 0 -14 3 -19 6 -12 7 17 23
5 23 -19 0 -10 7 -19 15 -19 8 0 15 -6 15 -12 1 -15 56 -78 69 -78 12 0 23
-29 16 -41 -4 -5 1 -6 9 -3 9 3 16 1 16 -5 0 -6 -4 -11 -9 -11 -5 0 -6 -12 -2
-28 5 -17 15 -28 30 -30 35 -5 22 -38 -14 -35 -16 1 -35 -3 -42 -9 -9 -7 -17
-7 -26 0 -7 6 -29 14 -48 16 -34 5 -55 10 -96 22 -17 5 -23 2 -23 -9 0 -9 5
-19 11 -23 13 -7 3 -56 -14 -66 -8 -5 -5 -9 8 -14 19 -8 55 -40 55 -50 0 -3
-7 -12 -15 -20 -11 -11 -19 -12 -34 -4 -11 5 -25 10 -31 10 -14 0 57 -50 280
-196 91 -59 248 -167 350 -238 102 -71 192 -130 201 -130 9 0 15 -5 13 -11 -3
-6 8 -18 23 -25 15 -8 40 -25 54 -37 21 -19 30 -22 50 -14 17 7 19 10 7 10
-25 1 -23 36 2 61 12 12 18 25 15 30 -3 5 4 11 15 15 11 3 20 10 20 15 0 5 17
8 38 7 27 -1 37 2 37 13 0 8 4 20 7 26 4 5 -9 27 -28 48 -19 20 -34 39 -34 42
0 2 13 4 29 4 19 0 30 6 33 18 8 28 -1 39 -27 34 -31 -5 -33 14 -3 24 35 11
61 40 54 62 -8 24 16 46 43 37 10 -3 22 -1 26 5 3 5 19 10 36 10 22 0 29 5 29
20 0 11 5 20 11 20 5 0 8 4 5 9 -3 5 14 12 38 15 39 6 44 10 48 36 3 19 0 30
-8 30 -6 0 -14 6 -17 14 -7 17 49 60 69 52 7 -3 13 -1 11 5 -1 6 14 19 33 30
22 12 34 26 32 36 -2 10 1 14 11 10 7 -3 20 -1 28 5 11 8 10 9 -3 4 -10 -3
-18 -1 -18 5 0 5 13 12 30 15 17 4 30 10 30 14 0 14 189 205 195 198 6 -6 -3
-61 -20 -113 -4 -14 3 -32 24 -59 76 -95 118 -236 125 -418 4 -95 32 -310 57
-436 l10 -52 727 2 726 3 -3 87 c-1 53 1 88 7 88 16 0 21 63 6 84 -14 20 -11
47 9 101 14 37 24 45 63 45 52 0 86 -57 85 -143 0 -26 9 -72 19 -102 14 -39
17 -69 13 -110 l-6 -55 152 0 151 0 0 1405 c0 773 -4 1405 -8 1405 -12 0 -32
46 -32 74 0 13 9 31 20 41 20 18 20 31 20 677 l0 658 -38 0 c-21 0 -48 7 -60
16 -12 8 -22 12 -22 8 0 -4 -8 0 -17 8 -10 9 -47 23 -83 32 -36 9 -83 29 -105
44 -54 36 -75 48 -112 65 -17 9 -34 25 -38 36 -7 22 -31 29 -37 11 -2 -6 -13
-5 -28 3 -17 9 -65 12 -155 11 -130 -2 -131 -2 -162 26 -23 20 -32 38 -35 69
-2 22 0 41 4 41 4 0 11 12 14 28 4 15 11 32 16 39 6 7 5 14 -2 18 -8 5 -6 15
6 32 16 25 15 26 -12 49 -16 13 -33 23 -37 24 -15 0 -23 43 -17 85 6 37 3 48
-22 81 -15 21 -28 49 -28 63 0 21 -9 30 -43 44 -82 36 -90 42 -111 86 -26 55
-57 62 -98 22 -52 -50 -65 -61 -75 -61 -6 0 -16 -7 -23 -15 -10 -12 -10 -15 3
-15 10 0 16 -9 15 -22 0 -44 -9 -68 -23 -68 -8 0 -15 -9 -15 -20 0 -15 -7 -20
-25 -20 -14 0 -28 7 -31 15 -5 11 -11 12 -24 5 -28 -15 -48 -3 -42 26 4 24
-14 58 -28 49 -4 -2 -17 5 -30 17 -17 16 -24 18 -30 8 -10 -16 -40 -5 -40 15
0 8 -9 15 -19 15 -20 0 -111 82 -111 100 0 17 37 11 44 -6 4 -9 9 -15 11 -12
3 2 -7 35 -20 73 -29 80 -29 75 -10 75 8 0 15 5 15 10 0 6 -8 10 -19 10 -29 0
-47 26 -31 45 10 13 10 19 -4 33 -9 10 -16 22 -16 26 0 4 -18 24 -40 45 -27
26 -38 44 -34 55 10 25 22 19 46 -23 13 -22 31 -42 41 -45 11 -2 16 -9 12 -15
-3 -6 -2 -11 3 -11 5 0 14 -11 20 -25 6 -14 18 -25 26 -25 28 0 0 44 -99 159
-22 25 -45 55 -51 66 -6 11 -22 20 -35 20 -16 0 -25 7 -27 20 -7 35 -17 35
-17 0 0 -18 3 -37 8 -41 14 -14 7 -26 -8 -14 -13 11 -14 10 -9 -4 14 -38 -45
-9 -72 36 -5 7 -22 20 -39 27 -17 8 -24 16 -17 18 19 7 14 23 -7 23 -33 0
-113 41 -108 55 4 9 -9 15 -43 19 -27 4 -52 11 -55 16 -3 6 -17 10 -29 10 -13
0 -48 11 -77 24 -30 13 -68 27 -85 30 -34 8 -69 39 -60 54 3 4 -1 20 -9 35
-16 30 -13 32 16 15 17 -11 22 -10 33 5 7 9 21 17 30 17 10 0 14 5 11 10 -3 6
-1 10 5 10 6 0 8 5 5 10 -3 6 3 10 14 10 12 0 21 4 21 9 0 5 11 11 24 15 13 3
40 21 62 41 21 19 43 35 50 35 7 0 15 8 18 18 13 39 61 72 112 78 44 5 53 3
87 -26 20 -17 34 -36 31 -41 -3 -6 3 -13 15 -16 12 -3 21 -12 21 -20 0 -8 7
-21 15 -29 8 -9 15 -24 15 -35 0 -10 5 -19 10 -19 6 0 10 -12 11 -27 0 -19 5
-11 15 27 8 31 14 85 12 125 l-3 70 -314 3 c-306 2 -341 -1 -341 -29 0 -4 9
-11 20 -14 26 -8 52 -58 43 -82 -9 -25 -55 -62 -110 -89 -27 -12 -40 -23 -30
-23 9 -1 17 -6 17 -11 0 -6 -11 -5 -27 3 -16 8 -43 17 -62 21 -29 5 -32 4 -21
-9 6 -8 21 -17 31 -20 39 -13 2 -32 -56 -30 -55 2 -101 26 -89 46 3 5 -2 9
-10 9 -9 0 -16 5 -16 10 0 6 -10 15 -22 20 -17 8 -7 9 39 6 65 -4 67 -2 34 38
-15 17 -15 18 4 13 21 -6 65 22 65 42 0 6 6 11 13 11 13 0 57 40 57 52 0 4
-31 8 -70 10 -59 3 -70 0 -74 -14 -3 -15 -9 -16 -35 -7 -36 13 -61 6 -61 -15
0 -10 -16 -15 -61 -18 -33 -1 -67 1 -75 5 -8 5 -14 4 -14 -3 0 -5 -7 -10 -15
-10 -8 0 -15 -4 -15 -10 0 -5 -9 -10 -21 -10 -21 0 -85 -62 -92 -91 -3 -10 1
-29 8 -43 15 -28 20 -86 17 -185 -2 -51 -5 -62 -17 -57 -10 4 -18 -7 -26 -37
-12 -41 -39 -83 -39 -60 0 6 14 45 30 86 31 78 44 154 16 92 -8 -16 -20 -51
-27 -77 -15 -52 -32 -66 -22 -18 7 37 -8 39 -36 4 -15 -20 -21 -22 -21 -10 0
9 -4 16 -10 16 -5 0 -10 -6 -10 -12 0 -7 -14 -29 -30 -48 -35 -41 -40 -22 -9
29 16 27 19 43 14 78 -4 30 -2 49 7 60 8 10 13 47 14 97 2 110 3 116 20 81 8
-18 11 -45 8 -66 -4 -28 -1 -38 11 -43 10 -3 15 -1 14 7 -3 15 40 87 52 87 12
0 12 -27 0 -32 -15 -5 -25 -78 -12 -78 14 0 18 10 26 72 l6 47 -33 3 c-26 2
-33 8 -34 25 -1 20 0 21 22 7 20 -14 24 -13 43 3 12 9 21 24 21 33 0 13 -1 13
-10 0 -9 -13 -10 -13 -10 0 0 8 12 21 28 28 34 16 67 40 61 46 -2 2 -17 8 -32
11 -24 6 -28 5 -25 -11 2 -11 -4 -20 -14 -22 -22 -4 -23 17 -4 44 25 34 3 44
-102 44 -82 0 -99 -3 -117 -20 -12 -11 -48 -31 -81 -43 -45 -17 -63 -30 -74
-54 -12 -24 -23 -32 -52 -36 -52 -7 -212 -88 -280 -142 -37 -29 -60 -55 -63
-72 -4 -16 -11 -36 -16 -46 -16 -28 -2 -33 20 -8 11 13 25 20 31 16 6 -4 21 1
32 12 21 18 21 18 14 -17 l-6 -35 21 30 21 30 -5 -27 c-5 -32 9 -38 18 -7 4
11 12 18 18 16 16 -5 36 23 37 51 0 15 6 22 19 22 13 0 23 11 31 35 13 39 30
39 22 0 -3 -20 -1 -24 12 -19 10 4 16 1 16 -7 0 -7 10 -3 25 11 29 27 31 24 9
-18 -9 -19 -23 -32 -34 -32 -13 0 -17 -5 -13 -19 3 -10 0 -22 -6 -25 -14 -9
-14 -26 -1 -26 6 0 10 7 10 15 0 8 7 15 16 15 11 0 14 -6 9 -21 -5 -15 -4 -19
4 -15 6 4 12 17 12 29 1 13 4 8 8 -13 l7 -35 19 40 c10 22 28 52 38 66 14 20
19 43 18 86 0 38 5 67 14 79 13 17 14 13 8 -35 -5 -40 -3 -52 5 -47 7 4 12 1
12 -8 0 -8 -4 -16 -9 -18 -6 -1 5 -34 23 -71 33 -67 33 -68 40 -36 3 17 6 48
6 68 l1 36 14 -30 c9 -20 14 -24 14 -12 1 9 4 16 9 15 15 -3 42 15 42 28 0 8
5 14 10 14 6 0 10 -6 10 -14 0 -7 3 -29 6 -47 6 -32 6 -33 -9 -14 -15 19 -16
18 -10 -19 4 -28 3 -37 -5 -32 -7 4 -13 17 -13 29 -1 15 -3 17 -6 6 -2 -11
-11 -15 -23 -12 -14 4 -20 -3 -25 -29 -4 -18 -12 -38 -17 -45 -16 -20 -17 -93
-1 -109 10 -9 11 -19 5 -30 -7 -12 -11 -13 -17 -5 -9 15 -35 -4 -35 -25 0 -37
-84 -174 -98 -160 -2 3 5 14 15 26 11 11 28 46 38 78 10 31 24 71 32 89 10 25
33 120 33 140 0 2 -5 1 -11 -2 -7 -5 -8 5 -4 29 5 22 3 36 -3 36 -17 0 -25
-57 -12 -81 10 -18 9 -32 -6 -75 -10 -29 -22 -51 -26 -48 -5 3 -8 2 -7 -3 4
-22 -2 -54 -9 -49 -4 2 -23 -18 -42 -44 -19 -27 -40 -47 -46 -45 -6 2 -11 -4
-10 -13 1 -11 -8 -17 -27 -19 -18 -1 -27 2 -24 10 2 7 10 12 18 12 8 0 24 25
36 55 30 71 29 81 -2 36 -14 -20 -25 -39 -25 -42 0 -3 -10 -18 -22 -34 -12
-16 -19 -32 -16 -36 11 -10 -87 -104 -107 -104 -17 1 -18 2 -5 13 8 7 15 18
16 25 2 28 5 32 23 32 23 0 61 57 61 92 0 14 6 31 14 37 15 13 27 71 14 71 -4
0 -8 -7 -8 -16 0 -10 -6 -14 -15 -10 -8 3 -19 -3 -25 -14 -16 -29 -12 -35 10
-15 11 10 20 13 20 7 0 -7 -4 -12 -10 -12 -5 0 -10 -7 -10 -15 0 -8 -4 -15
-10 -15 -5 0 -10 -7 -10 -15 0 -8 -7 -15 -15 -15 -12 0 -14 4 -7 16 9 17 4 64
-7 64 -4 0 -14 -12 -23 -27 -10 -16 -35 -47 -58 -71 -22 -24 -40 -47 -40 -51
0 -5 -11 -16 -24 -25 -14 -8 -36 -27 -50 -41 -28 -28 -46 -32 -46 -12 0 16 32
47 48 47 20 0 98 113 108 158 l7 27 -19 -22 c-11 -13 -27 -34 -36 -47 -12 -16
-24 -23 -37 -19 -19 5 -20 7 -5 35 9 16 13 32 10 36 -3 3 -6 1 -6 -5 0 -5 -11
-23 -25 -39 -28 -33 -32 -49 -9 -40 10 4 13 2 8 -6 -5 -7 -2 -9 9 -5 14 5 15
3 5 -18 -13 -29 -32 -34 -23 -6 4 12 0 21 -11 25 -13 5 -15 14 -11 41 7 45 2
44 -22 -5 -11 -22 -15 -37 -9 -34 6 4 9 1 6 -6 -7 -22 -24 -22 -34 0 -8 18
-11 16 -39 -25 -21 -30 -35 -43 -46 -39 -12 3 -20 -5 -28 -28 -8 -22 -14 -29
-22 -21 -12 12 6 59 31 83 22 20 31 48 19 55 -5 4 -12 -2 -16 -12 -3 -10 -19
-30 -35 -46 -15 -15 -28 -32 -28 -38 0 -5 -9 -19 -20 -31 -17 -19 -20 -19 -20
-5 0 25 -17 20 -37 -10 -10 -16 -26 -34 -36 -41 -11 -9 -16 -21 -12 -33 4 -11
2 -19 -4 -19 -6 0 -11 11 -11 24 0 25 -25 43 -35 26 -4 -6 -20 -10 -37 -10
-29 0 -30 2 -24 33 3 17 9 50 12 72 6 38 5 39 -10 20 -8 -11 -16 -15 -16 -10
0 6 -37 11 -90 11 -90 1 -91 1 -119 34 -19 23 -32 31 -41 25 -11 -7 -10 -10 6
-16 16 -6 16 -8 2 -8 -24 -1 -37 27 -54 115 -15 84 -19 214 -5 214 14 0 21
-56 21 -167 l0 -104 28 3 c19 2 31 12 42 35 8 18 23 35 33 39 10 3 17 15 17
29 0 19 -7 24 -40 30 -22 4 -40 11 -40 15 0 14 59 8 71 -7 28 -33 69 -7 69 43
0 23 6 34 18 38 10 4 28 15 40 26 15 15 29 18 51 14 17 -4 31 -10 31 -14 0 -5
8 -6 18 -3 10 2 24 -3 31 -11 19 -23 28 -20 34 12 4 18 -1 34 -13 47 -30 34
-52 194 -30 220 10 12 10 15 0 15 -8 0 -10 7 -5 23 4 12 6 32 6 45 0 12 4 22
9 22 6 0 10 -7 10 -16 0 -22 34 -13 39 11 2 10 17 32 34 48 29 27 36 29 82 23
27 -3 57 -1 65 4 10 6 -70 10 -230 10 -175 0 -241 -3 -230 -11 12 -8 12 -12 2
-16 -10 -4 -7 -10 9 -21 20 -14 23 -14 35 3 12 16 15 17 37 2 13 -8 34 -17 48
-19 17 -2 25 -10 28 -28 3 -25 3 -25 -18 -6 -21 19 -22 19 -36 0 -8 -10 -15
-24 -15 -31 0 -7 -7 -10 -15 -7 -20 8 -32 -25 -14 -36 7 -5 11 -11 8 -14 -3
-4 -24 12 -47 35 -43 41 -51 40 -31 -5 7 -15 17 -22 26 -19 9 4 16 -2 20 -15
3 -12 15 -28 28 -36 25 -16 75 -106 75 -133 0 -12 -13 -22 -40 -31 -55 -17
-84 -15 -122 8 -20 12 -51 20 -79 20 -37 0 -55 7 -93 35 -47 37 -54 54 -36
100 20 51 58 68 153 66 71 -1 55 21 -24 35 -35 6 -59 12 -52 13 18 2 8 46 -15
69 -12 12 -22 27 -22 32 0 7 -185 10 -534 10 l-533 0 -6 -42z m3933 11 c0 -6
-4 -7 -10 -4 -5 3 -10 11 -10 16 0 6 5 7 10 4 6 -3 10 -11 10 -16z m-865 -79
c-11 -5 -36 -8 -55 -8 -32 0 -33 1 -10 8 14 4 39 8 55 8 25 1 27 -1 10 -8z
m-455 -10 c0 -5 -7 -10 -16 -10 -8 0 -12 5 -9 10 3 6 10 10 16 10 5 0 9 -4 9
-10z m54 -4 c-3 -8 -1 -17 5 -21 6 -3 11 -10 11 -16 0 -11 -27 -12 -34 -1 -7
12 4 52 15 52 5 0 6 -6 3 -14z m-174 -40 c0 -3 -4 -8 -10 -11 -5 -3 -10 -1
-10 4 0 6 5 11 10 11 6 0 10 -2 10 -4z m420 -13 c11 -10 20 -21 20 -25 0 -12
-58 -10 -65 2 -3 6 -1 10 4 10 6 0 11 7 11 15 0 19 5 19 30 -2z m40 -3 c0 -5
-2 -10 -4 -10 -3 0 -8 5 -11 10 -3 6 -1 10 4 10 6 0 11 -4 11 -10z m-435 -80
c3 -5 1 -10 -4 -10 -6 0 -11 5 -11 10 0 6 2 10 4 10 3 0 8 -4 11 -10z m-54
-13 c-1 -12 -15 -9 -19 4 -3 6 1 10 8 8 6 -3 11 -8 11 -12z m-244 -19 c-3 -8
-6 -5 -6 6 -1 11 2 17 5 13 3 -3 4 -12 1 -19z m215 7 c0 -5 -5 -11 -11 -13 -6
-2 -11 4 -11 13 0 9 5 15 11 13 6 -2 11 -8 11 -13z m894 -21 c-3 -8 -1 -14 4
-14 6 0 10 -7 10 -15 0 -8 5 -15 10 -15 6 0 10 5 10 10 0 6 9 1 20 -10 26 -26
25 -30 -6 -30 -36 0 -64 17 -64 40 0 10 -6 20 -12 23 -10 3 -10 7 1 20 15 19
35 12 27 -9z m-31 -34 c3 -5 1 -10 -4 -10 -6 0 -11 5 -11 10 0 6 2 10 4 10 3
0 8 -4 11 -10z m-1018 -22 c-3 -8 -6 -5 -6 6 -1 11 2 17 5 13 3 -3 4 -12 1
-19z m993 2 c0 -5 -5 -10 -11 -10 -5 0 -7 5 -4 10 3 6 8 10 11 10 2 0 4 -4 4
-10z m-89 -165 c-17 -31 -31 -62 -31 -68 0 -7 -9 -25 -21 -42 l-20 -30 6 35
c4 19 13 42 20 50 7 8 25 42 41 75 15 33 29 54 31 48 3 -7 -9 -37 -26 -68z
m-406 38 c-4 -10 -9 -33 -12 -50 -3 -18 -10 -33 -14 -33 -5 0 -10 -12 -10 -27
-2 -25 -2 -25 -6 -5 -3 13 0 28 5 35 5 7 13 31 17 55 4 23 11 42 17 42 6 0 7
-8 3 -17z m895 -27 c0 -3 -4 -8 -10 -11 -5 -3 -10 -1 -10 4 0 6 5 11 10 11 6
0 10 -2 10 -4z m-930 -10 c0 -3 -4 -8 -10 -11 -5 -3 -10 -1 -10 4 0 6 5 11 10
11 6 0 10 -2 10 -4z m93 -16 c-6 -24 -23 -37 -23 -18 0 12 18 38 26 38 1 0 0
-9 -3 -20z m925 2 c2 -7 -5 -12 -16 -12 -27 0 -52 10 -52 21 0 13 63 5 68 -9z
m-1178 -9 c0 -5 -5 -15 -10 -23 -8 -12 -10 -11 -10 8 0 12 5 22 10 22 6 0 10
-3 10 -7z m1215 -13 c3 -5 -1 -10 -9 -10 -9 0 -16 5 -16 10 0 6 4 10 9 10 6 0
13 -4 16 -10z m-1145 -50 c0 -5 -5 -10 -11 -10 -5 0 -7 5 -4 10 3 6 8 10 11
10 2 0 4 -4 4 -10z m-225 -57 c-6 -27 -6 -27 13 -10 19 18 20 17 24 -19 4 -32
1 -39 -31 -60 -49 -32 -71 -50 -71 -58 0 -12 75 -1 87 14 6 8 15 12 19 7 4 -4
2 -7 -4 -7 -7 0 -12 -8 -12 -18 0 -22 -41 -59 -75 -68 -23 -6 -36 -24 -16 -24
5 0 16 -11 25 -25 17 -26 17 -26 -6 -13 -13 7 -30 18 -38 25 -8 6 -28 15 -44
19 -26 6 -28 5 -21 -15 5 -16 1 -27 -12 -36 -28 -22 -37 -18 -20 9 15 22 15
25 0 31 -10 3 -29 -3 -45 -15 -20 -14 -49 -22 -96 -25 -37 -3 -60 -2 -52 1 8
4 24 15 35 25 18 16 98 48 135 54 29 5 60 17 60 25 0 4 11 11 24 14 13 3 33
22 45 42 12 19 17 32 11 29 -5 -3 -10 -2 -10 3 0 5 8 12 18 14 11 3 23 23 32
49 16 52 19 59 27 59 3 0 2 -12 -2 -27z m1620 -2 c10 -17 -11 -21 -31 -6 -18
14 -18 14 3 15 12 0 24 -4 28 -9z m-1525 -21 c0 -5 -7 -10 -15 -10 -8 0 -15 5
-15 10 0 6 7 10 15 10 8 0 15 -4 15 -10z m-140 -34 c0 -3 -4 -8 -10 -11 -5 -3
-10 -1 -10 4 0 6 5 11 10 11 6 0 10 -2 10 -4z m125 -46 c-27 -12 -35 -12 -35
0 0 6 12 10 28 9 24 0 25 -1 7 -9z m-470 -36 c-8 -6 -12 -14 -8 -17 3 -4 -1
-7 -10 -7 -22 0 -22 18 0 42 13 14 18 16 25 6 4 -8 2 -17 -7 -24z m179 20 c15
-6 11 -34 -5 -34 -4 0 -6 7 -2 17 5 13 2 15 -15 11 -12 -4 -20 -2 -16 3 6 10
16 11 38 3z m-345 -18 c-12 -10 -60 -16 -54 -6 3 5 18 10 32 10 15 0 24 -2 22
-4z m606 -46 c-3 -5 -10 -10 -16 -10 -5 0 -9 5 -9 10 0 6 7 10 16 10 8 0 12
-4 9 -10z m-439 -45 c-8 -8 -24 -15 -36 -15 -11 0 -37 -7 -57 -15 -41 -17 -43
-18 -43 -7 0 7 44 24 105 42 44 12 48 11 31 -5z m637 -2 c13 -7 8 -23 -8 -23
-8 0 -15 4 -15 9 0 5 -7 8 -16 7 -9 0 -19 5 -21 12 -4 10 2 11 24 6 15 -4 31
-9 36 -11z m-643 -34 c0 -6 -8 -8 -19 -4 -11 3 -22 1 -26 -5 -4 -6 5 -10 22
-10 36 -1 13 -15 -39 -24 -36 -7 -59 6 -37 20 6 3 15 0 20 -7 6 -10 10 -9 15
6 4 11 12 23 18 27 16 11 46 9 46 -3z m-1030 -13 c0 -16 -18 -31 -27 -22 -8 8
5 36 17 36 5 0 10 -6 10 -14z m110 -16 c0 -5 -5 -10 -11 -10 -5 0 -7 5 -4 10
3 6 8 10 11 10 2 0 4 -4 4 -10z m1045 -20 c3 -5 2 -10 -4 -10 -5 0 -13 5 -16
10 -3 6 -2 10 4 10 5 0 13 -4 16 -10z m-1097 -9 c11 -7 10 -10 -3 -15 -20 -7
-38 1 -30 15 7 11 16 11 33 0z m272 -12 c0 -5 -14 -9 -31 -9 -16 0 -28 4 -25
9 3 5 17 9 31 9 14 0 25 -4 25 -9z m1240 -2 c0 -2 -9 -12 -20 -22 -24 -21 -27
-14 -4 9 15 15 24 20 24 13z m-1231 -35 c4 -6 19 -10 33 -9 15 1 26 -2 25 -8
-1 -5 -10 -9 -21 -7 -26 3 -48 -17 -41 -39 9 -28 -14 -23 -24 5 -5 13 -16 26
-24 29 -10 4 -13 13 -10 27 4 15 12 19 30 17 13 -2 28 -8 32 -15z m1091 4 c0
-16 -18 -31 -27 -22 -8 8 5 36 17 36 5 0 10 -6 10 -14z m34 -10 c-6 -16 -24
-23 -24 -8 0 10 22 33 27 28 2 -2 1 -11 -3 -20z m37 -19 c-17 -17 -24 -1 -10
25 12 21 14 21 17 4 2 -10 -1 -23 -7 -29z m95 8 c1 -7 -7 -21 -17 -31 -22 -19
-25 -7 -7 31 11 25 20 26 24 0z m-401 -6 c-7 -11 -35 -12 -35 -1 0 4 9 8 20 9
11 1 18 -2 15 -8z m-498 -36 c-9 -9 -20 -13 -24 -9 -4 4 -1 11 7 16 25 16 35
11 17 -7z m2497 -9 c3 -8 2 -12 -4 -9 -6 3 -10 10 -10 16 0 14 7 11 14 -7z
m-2931 -37 c-7 -11 -23 12 -23 33 1 12 4 11 15 -4 8 -10 12 -23 8 -29z m1372
33 c-3 -5 -11 -10 -16 -10 -6 0 -7 5 -4 10 3 6 11 10 16 10 6 0 7 -4 4 -10z
m-1127 -48 c3 -9 -2 -13 -14 -10 -9 1 -19 9 -22 16 -3 9 2 13 14 10 9 -1 19
-9 22 -16z m-318 -13 c0 -5 -9 -9 -20 -9 -19 0 -26 11 -14 23 8 8 34 -3 34
-14z m276 -14 c18 -14 18 -14 -8 -15 -27 0 -43 12 -31 24 9 9 17 8 39 -9z
m112 9 c27 -8 28 -25 2 -49 -15 -14 -20 -15 -20 -4 0 8 -9 20 -20 27 -36 22
-11 39 38 26z m1012 -14 c0 -5 -5 -10 -11 -10 -5 0 -7 5 -4 10 3 6 8 10 11 10
2 0 4 -4 4 -10z m-1445 -41 c-4 -5 -16 -9 -28 -9 -20 0 -20 0 -2 14 21 15 40
12 30 -5z m-125 -21 c0 -16 -3 -19 -11 -11 -6 6 -8 16 -5 22 11 17 16 13 16
-11z m305 4 c0 -15 40 -43 49 -35 3 3 6 -1 6 -10 0 -9 -4 -17 -9 -17 -5 0 -12
-8 -14 -17 -3 -12 -5 -8 -6 9 0 15 -5 29 -10 32 -5 4 -7 -12 -4 -35 5 -33 3
-41 -8 -37 -8 3 -13 13 -13 22 1 9 -6 16 -15 16 -13 0 -13 2 -2 9 10 6 12 19
7 46 -6 28 -4 36 6 33 7 -3 13 -10 13 -16z m-265 -12 c0 -5 -5 -10 -11 -10 -5
0 -7 5 -4 10 3 6 8 10 11 10 2 0 4 -4 4 -10z m228 -2 c-3 -7 -13 -15 -24 -17
-16 -3 -17 -1 -5 13 16 19 34 21 29 4z m-161 -30 c-3 -8 -6 -5 -6 6 -1 11 2
17 5 13 3 -3 4 -12 1 -19z m3408 -38 c-28 -12 -55 -12 -55 0 0 6 17 10 38 9
30 0 33 -2 17 -9z m-3084 -43 c-10 -9 -11 -8 -5 6 3 10 9 15 12 12 3 -3 0 -11
-7 -18z m3026 -23 c-3 -3 -12 -4 -19 -1 -8 3 -5 6 6 6 11 1 17 -2 13 -5z
m-3306 -347 c-10 -9 -11 -8 -5 6 3 10 9 15 12 12 3 -3 0 -11 -7 -18z m-11 -81
c0 -2 -7 -6 -15 -10 -8 -3 -15 -1 -15 4 0 6 7 10 15 10 8 0 15 -2 15 -4z
m4030 -386 c0 -5 -5 -10 -11 -10 -5 0 -7 5 -4 10 3 6 8 10 11 10 2 0 4 -4 4
-10z m-4428 -42 c-7 -7 -12 -8 -12 -2 0 14 12 26 19 19 2 -3 -1 -11 -7 -17z
m3737 -84 c3 -16 1 -17 -13 -5 -19 16 -21 34 -3 29 6 -3 14 -13 16 -24z m-947
-486 c-6 -6 -15 -8 -19 -4 -4 4 -1 11 7 16 19 12 27 3 12 -12z m506 -39 c36
-35 72 -36 87 -2 14 32 49 37 94 14 46 -24 49 -36 58 -226 3 -71 7 -132 9
-134 2 -2 7 5 11 15 4 10 13 25 20 32 37 38 -3 -141 -55 -243 -32 -64 -142
-171 -207 -201 -114 -53 -262 -74 -382 -54 -102 16 -172 48 -228 105 -52 51
-110 164 -101 193 8 24 76 38 91 19 10 -12 37 -19 85 -21 14 0 29 -7 33 -13
11 -18 27 -16 43 5 8 10 13 12 14 5 0 -17 42 -17 58 -1 7 7 20 13 30 13 9 0
16 5 15 12 -2 6 7 15 20 18 40 12 77 30 77 37 0 5 6 8 13 8 21 0 70 57 64 74
-3 8 -2 18 3 21 6 4 10 15 10 25 0 25 13 32 79 39 l56 6 1 40 c1 22 -5 50 -12
63 -8 12 -12 27 -9 31 8 13 -5 41 -19 41 -15 0 -66 52 -66 67 0 15 40 43 60
43 9 0 30 -14 48 -31z m-1281 -14 c15 -8 33 -15 39 -15 5 0 25 -11 44 -25 45
-33 26 -32 -41 4 -30 16 -71 32 -91 35 -21 4 -40 12 -44 18 -9 14 55 3 93 -17z
m-820 -97 c-2 -7 2 -20 10 -29 14 -16 8 -49 -8 -49 -5 0 -9 -5 -9 -10 0 -6
-11 -23 -24 -37 -22 -23 -28 -25 -58 -17 -27 9 -33 15 -31 37 3 48 69 111 102
99 8 -3 11 0 7 7 -4 6 -2 11 4 11 7 0 10 -6 7 -12z m889 -169 c3 -22 5 -23 13
-10 14 22 41 22 41 1 0 -10 3 -25 6 -34 5 -13 -1 -16 -25 -16 -24 0 -32 -5
-37 -25 -4 -18 -13 -25 -30 -25 -22 0 -24 4 -20 40 5 58 46 113 52 69z m-981
1 c-4 -6 8 -15 25 -21 28 -10 30 -15 25 -40 -8 -34 6 -37 60 -15 33 14 43 14
110 0 39 -9 74 -35 75 -56 0 -18 -31 -40 -51 -36 -18 4 -18 -41 0 -46 14 -4
68 -16 81 -19 3 0 11 -7 18 -14 16 -15 52 -18 52 -3 0 18 43 10 74 -14 21 -16
52 -26 93 -31 55 -6 69 -4 119 19 31 14 67 26 80 26 13 0 32 9 41 20 10 11 22
20 29 20 6 0 19 9 28 19 17 19 43 22 76 9 40 -16 74 -18 82 -6 22 30 -4 -91
-31 -149 -53 -112 -162 -206 -291 -249 -86 -29 -312 -27 -402 4 -126 43 -231
129 -281 229 -47 92 -72 222 -61 305 5 37 11 48 28 51 11 2 22 5 24 6 2 0 0
-4 -3 -9z m1388 -40 c-3 -12 2 -29 13 -41 17 -19 17 -20 -4 -42 l-22 -21 0 21
c0 12 -4 25 -10 28 -13 8 -13 41 1 66 13 24 29 16 22 -11z m-293 16 c0 -3 -4
-8 -10 -11 -5 -3 -10 -1 -10 4 0 6 5 11 10 11 6 0 10 -2 10 -4z m-70 -70 c0
-16 -18 -31 -27 -22 -8 8 5 36 17 36 5 0 10 -6 10 -14z m-53 -52 c-3 -3 -12
-4 -19 -1 -8 3 -5 6 6 6 11 1 17 -2 13 -5z m2628 -223 c-3 -2 14 -13 38 -23
35 -16 87 -61 87 -75 0 -13 -27 -51 -51 -75 -35 -34 -69 -43 -122 -32 -36 8
-45 15 -64 52 -18 36 -19 47 -10 73 7 17 25 38 40 45 15 8 32 26 37 40 8 21
12 23 29 12 11 -7 18 -14 16 -17z m-658 -396 c1 -34 -2 -45 -14 -45 -8 0 -17
-9 -20 -20 -7 -26 -20 -26 -28 0 -4 14 2 28 20 45 14 15 23 31 20 36 -7 10 2
29 13 29 4 0 8 -20 9 -45z m673 -15 c0 -5 -7 -10 -15 -10 -22 0 -18 -21 5 -27
15 -4 18 -9 10 -18 -8 -9 -3 -17 15 -29 21 -14 24 -20 15 -31 -6 -8 -13 -39
-16 -71 -3 -38 -10 -62 -22 -70 -22 -18 -42 -17 -42 0 0 8 -7 17 -16 20 -10 4
-13 13 -9 26 4 11 1 36 -5 56 -10 30 -9 38 5 54 15 17 15 20 0 44 -23 35 -13
54 32 59 21 2 39 4 41 5 1 1 2 -2 2 -8z m333 -251 c32 -17 57 -46 57 -66 0
-10 4 -24 9 -32 5 -8 6 -21 1 -30 -24 -48 -40 -94 -40 -112 0 -23 -48 -79 -67
-79 -7 0 -13 7 -13 16 0 10 -6 14 -15 11 -19 -8 -22 -2 -36 79 -19 113 -14
150 26 190 38 37 46 40 78 23z m-354 -94 c9 -8 31 -28 50 -44 32 -28 34 -34
34 -91 0 -48 -4 -65 -22 -84 -16 -17 -20 -30 -15 -50 5 -20 2 -26 -9 -26 -21
0 -32 -19 -18 -33 6 -6 11 -19 11 -30 0 -14 -5 -17 -22 -12 -13 4 -29 14 -36
23 -10 13 -15 14 -20 5 -6 -10 -17 -9 -45 4 -42 19 -46 29 -17 38 13 4 20 15
20 32 0 19 4 24 16 19 8 -3 22 1 30 9 13 12 11 20 -16 57 -21 29 -29 50 -25
65 3 12 1 25 -5 28 -5 3 -10 10 -10 14 0 9 72 91 79 91 2 0 11 -7 20 -15z
m-649 -431 c19 -12 26 -23 23 -35 -3 -11 0 -19 6 -19 6 0 11 -16 11 -35 0 -36
-22 -50 -34 -20 -3 8 -10 15 -16 15 -8 0 -8 -6 0 -20 8 -16 8 -20 -4 -20 -17
0 -48 37 -66 80 -11 27 -10 33 5 50 22 24 38 25 75 4z m703 -28 c34 -44 39
-132 8 -160 -18 -17 -24 -67 -8 -82 11 -11 8 -54 -4 -54 -6 0 -8 -9 -4 -22 6
-16 4 -20 -8 -15 -8 3 -20 0 -26 -6 -15 -15 -47 16 -55 55 -5 24 0 39 20 65
l26 34 -25 -6 c-19 -5 -25 -2 -30 14 -3 13 -13 21 -26 21 -17 0 -21 7 -23 33
-2 55 1 69 30 102 52 63 86 69 125 21z m-1133 -52 c0 -17 -12 -18 -28 -2 -18
18 -15 27 8 21 11 -3 20 -12 20 -19z m1450 -75 c0 -6 6 -16 13 -24 6 -7 20
-22 29 -34 17 -20 17 -21 -2 -21 -22 0 -25 -16 -11 -53 10 -26 8 -28 -60 -55
-22 -9 -28 -6 -48 24 -21 31 -22 37 -10 66 7 18 21 39 31 46 15 11 16 17 8 27
-7 8 -9 19 -5 25 8 13 55 13 55 -1z m-3651 -198 c16 -10 7 -45 -11 -39 -12 4
-22 48 -10 48 4 0 13 -4 21 -9z m-42 -69 c-16 -20 -31 2 -23 34 l7 28 13 -25
c9 -16 10 -28 3 -37z m-857 -1 c-4 -25 -6 -51 -3 -58 3 -7 1 -19 -5 -26 -7 -9
-6 -34 3 -85 8 -40 12 -79 9 -87 -4 -8 1 -18 10 -21 10 -4 14 -13 11 -24 -3
-11 1 -20 10 -24 9 -3 15 -18 15 -33 1 -55 5 -81 14 -80 15 3 28 -61 16 -83
-6 -11 -8 -25 -5 -30 3 -5 -4 -14 -15 -20 -23 -12 -25 -7 -10 21 8 13 7 19 0
19 -15 0 -60 50 -60 66 0 7 -6 17 -13 21 -7 4 -18 21 -25 37 -12 27 -14 28
-31 12 -18 -17 -19 -16 -26 14 -5 25 -10 30 -27 24 -14 -4 -21 0 -25 16 -3 12
-11 19 -19 16 -9 -4 -13 2 -11 16 3 26 -21 36 -29 11 -3 -10 -11 -28 -17 -41
-9 -18 -8 -25 3 -34 12 -8 11 -9 -3 -4 -28 9 -56 -11 -65 -47 -4 -17 -17 -36
-28 -42 -10 -5 -19 -17 -19 -25 0 -8 -9 -16 -19 -18 -22 -5 -55 -40 -56 -59 0
-7 -4 -13 -9 -13 -5 0 -16 -18 -25 -40 -17 -44 -53 -59 -42 -18 3 13 6 30 6
39 0 10 24 48 53 85 28 38 59 79 67 90 48 69 109 144 165 202 34 37 84 101
110 142 44 68 95 133 101 127 1 -1 -1 -22 -6 -46z m914 -12 c-3 -5 -10 -7 -15
-3 -5 3 -7 10 -3 15 3 5 10 7 15 3 5 -3 7 -10 3 -15z m6 -39 c0 -5 -7 -10 -16
-10 -8 0 -12 5 -9 10 3 6 10 10 16 10 5 0 9 -4 9 -10z m50 -25 c0 -8 -4 -15
-10 -15 -5 0 -10 7 -10 15 0 8 5 15 10 15 6 0 10 -7 10 -15z m60 -5 c0 -5 -2
-10 -4 -10 -3 0 -8 5 -11 10 -3 6 -1 10 4 10 6 0 11 -4 11 -10z m1105 0 c3 -5
-1 -10 -10 -10 -9 0 -13 5 -10 10 3 6 8 10 10 10 2 0 7 -4 10 -10z m-904 -83
c-8 -8 -11 -7 -11 4 0 20 13 34 18 19 3 -7 -1 -17 -7 -23z m789 -337 c0 -5 -4
-10 -10 -10 -5 0 -10 5 -10 10 0 6 5 10 10 10 6 0 10 -4 10 -10z m-90 -70 c0
-5 -7 -10 -16 -10 -8 0 -12 5 -9 10 3 6 10 10 16 10 5 0 9 -4 9 -10z m-1800
-75 c0 -8 -4 -15 -10 -15 -5 0 -10 7 -10 15 0 8 5 15 10 15 6 0 10 -7 10 -15z
m1523 -332 c-7 -2 -19 -2 -25 0 -7 3 -2 5 12 5 14 0 19 -2 13 -5z m2935 -16
c6 -5 12 -25 12 -44 0 -39 -19 -51 -59 -37 -32 11 -39 45 -17 79 16 24 34 25
64 2z m-2928 -37 c0 -5 -4 -10 -10 -10 -5 0 -10 5 -10 10 0 6 5 10 10 10 6 0
10 -4 10 -10z m-3133 -6 c-3 -3 -12 -4 -19 -1 -8 3 -5 6 6 6 11 1 17 -2 13 -5z
m-137 -33 c0 -11 -31 -24 -39 -16 -3 3 1 10 9 15 19 12 30 12 30 1z m6203 -28
c-7 -2 -21 -2 -30 0 -10 3 -4 5 12 5 17 0 24 -2 18 -5z"/>
<path d="M2490 5340 c0 -5 4 -10 9 -10 6 0 13 5 16 10 3 6 -1 10 -9 10 -9 0
-16 -4 -16 -10z"/>
<path d="M4340 3400 c0 -5 7 -10 15 -10 8 0 15 5 15 10 0 6 -7 10 -15 10 -8 0
-15 -4 -15 -10z"/>
<path d="M2650 2871 c0 -5 -3 -18 -7 -28 -6 -17 -5 -17 15 1 12 10 19 23 16
27 -7 12 -24 11 -24 0z"/>
<path d="M1715 660 c-3 -5 -1 -10 4 -10 6 0 11 5 11 10 0 6 -2 10 -4 10 -3 0
-8 -4 -11 -10z"/>
<path d="M5378 6268 c10 -12 15 -57 13 -104 -1 -12 -12 -33 -25 -47 -15 -16
-22 -34 -19 -45 2 -11 0 -23 -6 -26 -17 -11 -13 -23 9 -29 16 -4 20 0 20 20 0
19 4 23 19 18 14 -4 26 3 46 29 35 46 90 59 115 28 10 -12 51 -37 93 -56 42
-20 82 -45 90 -56 7 -11 36 -29 63 -40 27 -11 63 -27 79 -35 17 -8 57 -21 90
-29 231 -55 264 -70 278 -130 16 -67 32 -36 32 64 l0 93 -51 3 c-57 3 -131 35
-141 62 -4 9 -24 40 -45 68 -40 54 -45 72 -27 106 13 24 -1 59 -39 96 -18 17
-35 22 -74 22 -50 0 -51 0 -33 -20 16 -18 16 -20 1 -26 -12 -5 -16 -19 -16
-60 0 -66 -20 -82 -72 -60 -18 8 -48 20 -65 26 -22 8 -33 19 -33 32 0 12 -4
17 -12 12 -8 -5 -9 0 -6 14 4 12 2 25 -3 28 -5 3 -5 13 1 24 5 10 10 21 10 24
0 3 -68 6 -151 6 -120 0 -149 -3 -141 -12z"/>
<path d="M5790 6270 c19 -13 30 -13 30 0 0 6 -10 10 -22 10 -19 0 -20 -2 -8
-10z"/>
<path d="M1555 6180 c-3 -5 -1 -10 4 -10 6 0 11 5 11 10 0 6 -2 10 -4 10 -3 0
-8 -4 -11 -10z"/>
<path d="M4290 6141 c0 -6 4 -12 9 -15 5 -3 7 -15 4 -25 -6 -24 11 -35 26 -17
9 11 8 17 -4 29 -8 9 -15 20 -15 26 0 6 -4 11 -10 11 -5 0 -10 -4 -10 -9z"/>
<path d="M3520 6070 c0 -5 5 -10 10 -10 6 0 10 5 10 10 0 6 -4 10 -10 10 -5 0
-10 -4 -10 -10z"/>
<path d="M3505 6020 c-3 -5 -1 -10 4 -10 6 0 11 5 11 10 0 6 -2 10 -4 10 -3 0
-8 -4 -11 -10z"/>
<path d="M4397 5997 c-9 -14 -17 -33 -17 -41 0 -8 -4 -18 -10 -21 -15 -9 -12
-61 4 -74 7 -6 16 -25 20 -42 6 -33 29 -35 34 -3 7 43 12 48 26 28 20 -27 24
-16 17 43 -5 32 -16 62 -28 75 -12 13 -23 32 -25 42 -3 18 -5 17 -21 -7z m23
-162 c0 -14 -4 -25 -10 -25 -5 0 -10 11 -10 25 0 14 5 25 10 25 6 0 10 -11 10
-25z"/>
<path d="M2742 5920 c0 -14 2 -19 5 -12 2 6 2 18 0 25 -3 6 -5 1 -5 -13z"/>
<path d="M3013 5915 c-9 -24 1 -27 15 -5 8 13 8 20 2 20 -6 0 -13 -7 -17 -15z"/>
<path d="M2688 5872 c-8 -15 -18 -45 -22 -67 l-6 -40 14 30 c17 39 36 98 33
102 -2 1 -10 -10 -19 -25z"/>
<path d="M3035 5881 c-3 -6 -11 -9 -16 -6 -5 4 -9 2 -9 -4 0 -5 4 -12 10 -16
5 -3 7 -12 3 -20 -3 -8 -1 -15 5 -15 5 0 12 15 15 33 5 35 3 44 -8 28z"/>
<path d="M5382 5839 c-7 -21 -12 -44 -12 -51 0 -6 -10 -22 -22 -35 -30 -32
-11 -51 24 -24 14 11 28 17 32 13 4 -3 11 0 16 8 7 10 10 11 10 3 0 -7 5 -13
10 -13 17 0 11 36 -10 63 -11 14 -20 34 -20 45 0 37 -15 32 -28 -9z"/>
<path d="M2405 5820 c-3 -6 1 -7 9 -4 18 7 21 14 7 14 -6 0 -13 -4 -16 -10z"/>
<path d="M4998 5813 c-33 -21 -42 -41 -27 -59 27 -33 79 0 79 49 0 31 -14 33
-52 10z"/>
<path d="M4225 5796 c11 -8 25 -16 30 -16 6 0 15 -8 22 -18 7 -12 24 -19 42
-20 17 0 29 4 26 9 -4 5 -15 9 -26 9 -11 0 -19 7 -19 16 0 8 -5 12 -11 8 -6
-3 -14 -2 -18 3 -3 6 -19 13 -36 17 -29 7 -29 7 -10 -8z"/>
<path d="M0 5619 l0 -152 20 26 c11 14 20 34 20 46 0 40 21 70 48 68 19 -2 25
3 27 21 1 15 -3 22 -14 21 -41 -4 -51 3 -70 47 -12 25 -19 50 -16 54 3 5 1 11
-5 15 -7 4 -10 -45 -10 -146z"/>
<path d="M2616 5753 c-6 -14 -5 -15 5 -6 7 7 10 15 7 18 -3 3 -9 -2 -12 -12z"/>
<path d="M4760 5740 c0 -5 5 -10 10 -10 6 0 10 5 10 10 0 6 -4 10 -10 10 -5 0
-10 -4 -10 -10z"/>
<path d="M4720 5721 c0 -5 -9 -13 -20 -16 -28 -9 -25 -32 7 -39 29 -8 43 5 43
42 0 13 -6 22 -15 22 -8 0 -15 -4 -15 -9z"/>
<path d="M4330 5700 c0 -5 5 -10 11 -10 5 0 7 5 4 10 -3 6 -8 10 -11 10 -2 0
-4 -4 -4 -10z"/>
<path d="M136 5614 c-9 -24 -7 -27 9 -10 17 17 19 26 6 26 -5 0 -12 -7 -15
-16z"/>
<path d="M2332 5600 c-7 -11 -8 -20 -3 -20 9 0 24 30 18 36 -1 2 -8 -6 -15
-16z"/>
<path d="M1 5434 c0 -11 3 -14 6 -6 3 7 2 16 -1 19 -3 4 -6 -2 -5 -13z"/>
<path d="M1905 5400 c3 -5 8 -10 11 -10 2 0 4 5 4 10 0 6 -5 10 -11 10 -5 0
-7 -4 -4 -10z"/>
<path d="M6254 5303 c-32 -43 -37 -74 -13 -80 10 -3 19 -12 19 -19 0 -8 5 -14
10 -14 6 0 10 30 10 70 0 39 -1 70 -3 70 -2 0 -12 -12 -23 -27z"/>
<path d="M2270 5179 c0 -5 5 -7 10 -4 6 3 10 8 10 11 0 2 -4 4 -10 4 -5 0 -10
-5 -10 -11z"/>
<path d="M2340 5130 c0 -5 7 -10 15 -10 8 0 15 5 15 10 0 6 -7 10 -15 10 -8 0
-15 -4 -15 -10z"/>
<path d="M2408 5123 c7 -3 16 -2 19 1 4 3 -2 6 -13 5 -11 0 -14 -3 -6 -6z"/>
<path d="M2277 5098 c-4 -14 -2 -18 10 -14 8 3 19 6 24 6 17 0 9 18 -10 23
-13 3 -21 -1 -24 -15z"/>
<path d="M2155 5090 c-3 -5 1 -10 9 -10 8 0 18 5 21 10 3 6 -1 10 -9 10 -8 0
-18 -4 -21 -10z"/>
<path d="M2847 5093 c-4 -3 -7 -11 -7 -17 0 -6 5 -5 12 2 6 6 9 14 7 17 -3 3
-9 2 -12 -2z"/>
<path d="M4871 5054 c0 -11 3 -14 6 -6 3 7 2 16 -1 19 -3 4 -6 -2 -5 -13z"/>
<path d="M2111 5036 c-9 -11 -6 -12 14 -8 14 2 25 8 25 13 0 14 -26 11 -39 -5z"/>
<path d="M2040 5025 c0 -8 5 -15 10 -15 6 0 10 7 10 15 0 8 -4 15 -10 15 -5 0
-10 -7 -10 -15z"/>
<path d="M1970 5008 c0 -4 7 -8 15 -8 8 0 15 4 15 8 0 5 -7 9 -15 9 -8 0 -15
-4 -15 -9z"/>
<path d="M2011 4974 c0 -11 3 -14 6 -6 3 7 2 16 -1 19 -3 4 -6 -2 -5 -13z"/>
<path d="M1896 4929 c-11 -10 -14 -19 -8 -19 7 0 12 -8 12 -17 0 -24 17 -4 25
30 8 31 -2 34 -29 6z"/>
<path d="M1951 4933 c0 -10 3 -13 5 -6 3 7 12 9 21 6 11 -4 14 -2 9 5 -11 18
-36 14 -35 -5z"/>
<path d="M1886 4861 c-4 -7 -5 -15 -2 -18 9 -9 19 4 14 18 -4 11 -6 11 -12 0z"/>
<path d="M1626 4851 c-4 -7 -5 -15 -2 -18 9 -9 19 4 14 18 -4 11 -6 11 -12 0z"/>
<path d="M5554 4823 c-10 -24 -13 -53 -5 -53 7 0 61 59 61 66 0 13 -49 1 -56
-13z"/>
<path d="M1551 4793 c0 -25 1 -26 9 -8 12 27 12 35 0 35 -5 0 -10 -12 -9 -27z"/>
<path d="M1487 4741 c-4 -17 -2 -17 24 -4 35 18 36 23 5 23 -15 0 -26 -7 -29
-19z"/>
<path d="M1415 4716 c-27 -28 -75 -99 -75 -111 0 -12 39 33 77 88 29 42 28 54
-2 23z"/>
<path d="M1480 4644 c0 -8 5 -12 10 -9 6 3 10 10 10 16 0 5 -4 9 -10 9 -5 0
-10 -7 -10 -16z"/>
<path d="M1297 4573 c-4 -3 -7 -11 -7 -17 0 -6 5 -5 12 2 6 6 9 14 7 17 -3 3
-9 2 -12 -2z"/>
<path d="M1245 4330 c3 -5 10 -10 16 -10 5 0 9 5 9 10 0 6 -7 10 -16 10 -8 0
-12 -4 -9 -10z"/>
<path d="M1465 4258 c-61 -69 -85 -101 -85 -110 0 -5 16 5 35 23 19 18 32 35
30 37 -3 3 7 16 21 29 14 13 24 28 22 33 -2 6 -12 0 -23 -12z"/>
<path d="M1210 4135 c0 -8 5 -15 10 -15 6 0 10 7 10 15 0 8 -4 15 -10 15 -5 0
-10 -7 -10 -15z"/>
<path d="M1270 4108 c0 -4 7 -8 15 -8 8 0 15 4 15 8 0 5 -7 9 -15 9 -8 0 -15
-4 -15 -9z"/>
<path d="M1240 4081 c0 -25 6 -27 13 -6 4 8 2 17 -3 20 -6 4 -10 -3 -10 -14z"/>
<path d="M1340 4083 c-24 -12 -24 -13 -3 -13 12 0 25 5 28 11 11 16 2 17 -25
2z"/>
<path d="M1270 4074 c0 -8 5 -12 10 -9 6 3 10 10 10 16 0 5 -4 9 -10 9 -5 0
-10 -7 -10 -16z"/>
<path d="M1435 4040 c-3 -5 -1 -10 4 -10 6 0 11 5 11 10 0 6 -2 10 -4 10 -3 0
-8 -4 -11 -10z"/>
<path d="M1220 4010 c0 -12 28 -21 35 -11 2 5 -4 11 -15 14 -11 3 -20 2 -20
-3z"/>
<path d="M1199 3954 c-12 -14 -11 -16 5 -13 11 2 21 10 24 17 5 17 -13 15 -29
-4z"/>
<path d="M1187 3913 c-4 -3 -7 -13 -7 -22 1 -13 3 -13 11 2 11 19 8 33 -4 20z"/>
<path d="M1320 3891 c0 -12 5 -21 10 -21 6 0 10 6 10 14 0 8 -4 18 -10 21 -5
3 -10 -3 -10 -14z"/>
<path d="M1380 3886 c0 -24 17 -28 23 -6 3 13 0 20 -9 20 -8 0 -14 -6 -14 -14z"/>
<path d="M1380 3825 c-18 -21 -3 -32 16 -13 10 9 12 18 6 22 -5 3 -15 -1 -22
-9z"/>
<path d="M1234 3785 c-12 -8 -23 -13 -25 -12 -3 1 -1 -2 3 -7 9 -11 58 9 58
24 0 14 -12 13 -36 -5z"/>
<path d="M1361 3714 c0 -11 3 -14 6 -6 3 7 2 16 -1 19 -3 4 -6 -2 -5 -13z"/>
<path d="M1345 3660 c-10 -11 -15 -20 -11 -20 11 0 39 30 34 36 -3 2 -13 -5
-23 -16z"/>
<path d="M1246 3601 c-9 -27 -24 -52 -31 -55 -8 -3 -11 -13 -8 -25 3 -12 1
-21 -3 -21 -5 0 -10 -14 -11 -30 -1 -17 2 -30 7 -30 6 0 10 -9 10 -20 0 -11 4
-20 8 -20 13 0 55 99 49 114 -3 8 2 17 10 21 15 5 15 7 1 21 -11 12 -14 28
-11 55 3 21 4 39 1 39 -2 0 -12 -22 -22 -49z"/>
<path d="M5390 3630 c0 -5 5 -10 11 -10 5 0 7 5 4 10 -3 6 -8 10 -11 10 -2 0
-4 -4 -4 -10z"/>
<path d="M1310 3580 c-8 -5 -12 -12 -9 -15 8 -8 39 5 39 16 0 11 -11 11 -30
-1z"/>
<path d="M1456 3481 c-3 -5 -2 -20 3 -33 6 -12 10 -21 11 -18 8 28 8 50 1 55
-5 3 -12 1 -15 -4z"/>
<path d="M1360 3447 c0 -14 -6 -28 -12 -30 -10 -4 -10 -6 0 -6 17 -1 16 -61
-1 -61 -9 0 -12 -10 -9 -30 3 -19 0 -30 -7 -30 -7 0 -9 -4 -6 -10 3 -5 14 -10
24 -10 10 0 24 -6 30 -14 18 -22 82 -9 107 22 21 26 59 39 68 24 7 -12 63 -3
74 12 14 17 -6 79 -23 72 -8 -3 -18 0 -22 7 -5 8 -9 4 -13 -11 -3 -13 -9 -22
-15 -20 -5 2 -9 6 -7 11 1 4 -9 7 -23 7 -14 0 -25 5 -25 10 0 6 -7 10 -15 10
-8 0 -15 5 -15 10 0 6 -7 10 -15 10 -8 0 -15 -5 -15 -11 0 -5 -5 -7 -10 -4 -6
3 -7 17 -4 31 4 16 2 24 -7 24 -8 0 -24 3 -36 6 -19 5 -23 2 -23 -19z m17 -99
c-3 -8 -6 -5 -6 6 -1 11 2 17 5 13 3 -3 4 -12 1 -19z m26 -38 c3 -11 1 -20 -4
-20 -5 0 -9 2 -9 4 0 2 -3 11 -6 20 -3 9 -2 16 4 16 5 0 12 -9 15 -20z"/>
<path d="M1284 3445 c-11 -27 2 -37 14 -11 7 16 8 26 1 26 -5 0 -12 -7 -15
-15z"/>
<path d="M1247 3389 c6 -6 7 -26 2 -52 -4 -23 -7 -43 -6 -43 15 -11 47 -12 56
-1 15 18 3 77 -16 77 -7 0 -16 7 -19 15 -4 8 -11 15 -17 15 -8 0 -8 -3 0 -11z"/>
<path d="M1195 3299 c-9 -14 -2 -20 14 -10 8 6 9 11 3 15 -6 3 -14 1 -17 -5z"/>
<path d="M1573 3272 c-18 -2 -33 -7 -33 -11 0 -5 -14 -11 -30 -15 -29 -5 -30
-7 -18 -28 10 -19 13 -20 16 -6 2 9 9 15 17 12 7 -3 16 -1 19 4 3 6 38 16 76
23 115 20 84 34 -47 21z"/>
<path d="M1450 3185 c0 -8 4 -15 10 -15 5 0 7 7 4 15 -4 8 -8 15 -10 15 -2 0
-4 -7 -4 -15z"/>
<path d="M1585 3160 c-3 -5 -1 -10 4 -10 6 0 11 5 11 10 0 6 -2 10 -4 10 -3 0
-8 -4 -11 -10z"/>
<path d="M1410 3150 c0 -5 5 -10 10 -10 6 0 10 5 10 10 0 6 -4 10 -10 10 -5 0
-10 -4 -10 -10z"/>
<path d="M1458 3143 c6 -2 18 -2 25 0 6 3 1 5 -13 5 -14 0 -19 -2 -12 -5z"/>
<path d="M1556 3135 c-3 -8 -1 -15 4 -15 6 0 10 7 10 15 0 8 -2 15 -4 15 -2 0
-6 -7 -10 -15z"/>
<path d="M1161 3130 c-41 -18 -54 -32 -39 -41 10 -7 10 -9 1 -9 -7 0 -13 -7
-13 -17 0 -9 3 -13 7 -10 13 13 33 -16 33 -49 0 -44 13 -43 29 1 13 36 42 55
110 70 33 7 101 -17 101 -35 0 -10 70 -43 77 -36 7 6 -70 86 -83 86 -7 0 -29
9 -48 21 -41 24 -138 34 -175 19z"/>
<path d="M1567 3083 c-15 -25 -25 -48 -22 -51 3 -3 5 -1 5 5 0 6 7 13 14 16
11 4 13 1 9 -11 -5 -14 -4 -15 8 -4 8 7 14 31 15 52 0 22 0 40 0 40 -1 0 -14
-21 -29 -47z"/>
<path d="M1500 3110 c-12 -8 -11 -10 8 -10 12 0 22 5 22 10 0 13 -11 13 -30 0z"/>
<path d="M1528 3086 c-19 -14 -23 -26 -10 -26 4 0 13 9 20 20 14 23 13 24 -10
6z"/>
<path d="M1564 2988 c-4 -7 -4 -10 1 -6 4 4 14 3 22 -3 10 -9 13 -8 13 5 0 19
-26 22 -36 4z"/>
<path d="M1497 2890 c-41 -44 -44 -52 -22 -70 8 -7 15 -29 15 -50 0 -37 1 -38
34 -37 30 1 35 5 50 46 22 62 20 80 -12 118 l-28 32 -37 -39z"/>
<path d="M4713 2884 c-19 -19 -16 -34 5 -27 14 5 15 3 5 -8 -16 -16 -18 -129
-3 -129 28 0 39 116 16 158 -9 17 -13 18 -23 6z"/>
<path d="M1544 2708 c-14 -23 -13 -58 2 -58 9 0 14 11 14 35 0 37 -4 43 -16
23z"/>
<path d="M1473 2650 c23 -14 13 -30 -14 -23 -30 8 -41 -15 -21 -43 13 -17 24
-21 42 -17 24 5 25 5 5 -10 -19 -16 -19 -16 15 -17 26 0 31 3 22 12 -15 15
-16 55 -1 64 6 3 15 0 20 -7 7 -11 9 -9 9 7 0 23 -16 33 -65 40 -25 4 -27 3
-12 -6z"/>
<path d="M3855 2571 c-3 -6 1 -14 9 -17 9 -3 25 -26 37 -49 12 -24 26 -43 30
-42 13 3 199 -205 217 -243 10 -19 25 -44 34 -54 17 -18 48 -105 64 -176 l7
-35 9 35 c5 19 13 59 17 88 4 29 14 59 23 68 13 13 14 22 5 51 -6 19 -19 39
-30 44 -14 8 -17 17 -13 35 7 28 -19 64 -46 64 -10 0 -18 4 -18 10 0 5 -21 20
-47 32 -27 12 -49 26 -51 30 -2 4 -10 8 -19 8 -10 0 -12 6 -8 19 5 16 -1 21
-27 26 -18 4 -39 12 -47 18 -7 6 -20 12 -29 13 -8 2 -18 8 -23 15 -6 10 -11
10 -23 0 -14 -12 -16 -11 -16 6 0 25 -45 69 -55 54z"/>
<path d="M3090 2550 c0 -5 4 -10 9 -10 6 0 13 5 16 10 3 6 -1 10 -9 10 -9 0
-16 -4 -16 -10z"/>
<path d="M4055 2540 l40 -7 -35 -3 c-38 -2 -91 -17 -75 -20 23 -5 121 3 135
11 13 7 12 8 -2 9 -10 0 -18 5 -18 10 0 6 -19 9 -42 9 l-43 -2 40 -7z"/>
<path d="M3060 2521 c0 -6 -17 -11 -37 -11 -21 0 -50 -6 -64 -14 -36 -19 -126
-39 -138 -31 -7 3 -8 0 -5 -9 4 -10 1 -16 -10 -16 -8 0 -13 6 -10 13 3 9 -7
14 -36 15 -39 3 -55 -10 -26 -21 34 -13 106 -19 106 -8 0 14 37 15 45 1 4 -7
12 -7 18 -2 7 5 27 7 45 5 20 -2 32 2 32 10 0 8 3 7 10 -3 6 -9 5 -17 -3 -22
-9 -6 -5 -13 11 -26 13 -10 24 -31 26 -47 2 -17 4 -33 5 -37 0 -3 19 -25 41
-47 42 -45 93 -71 137 -71 21 0 24 -3 15 -12 -7 -7 -12 -24 -12 -39 0 -21 6
-28 28 -34 l27 -7 -25 -10 c-16 -6 -26 -6 -28 1 -7 20 -42 12 -42 -8 0 -11 -5
-23 -10 -26 -17 -11 -51 6 -60 28 -7 18 -9 18 -9 5 -1 -10 -5 -18 -9 -18 -5 0
-18 -9 -30 -20 -15 -14 -31 -19 -54 -16 -18 3 -36 5 -40 5 -4 1 -9 9 -12 19
-6 18 -59 52 -81 52 -21 0 -27 -17 -15 -40 8 -16 8 -20 -4 -20 -25 0 -40 66
-25 114 14 45 45 86 66 86 7 0 13 6 13 14 0 8 3 21 6 30 8 20 -19 22 -35 2 -7
-9 -24 -13 -42 -11 -22 3 -35 -2 -51 -21 -12 -13 -28 -22 -35 -20 -7 3 -13 1
-13 -4 0 -6 -7 -10 -15 -10 -8 0 -15 7 -15 15 0 8 -7 15 -15 15 -11 0 -14 -7
-9 -24 4 -19 1 -25 -18 -31 -52 -15 -78 -31 -78 -47 0 -11 -5 -15 -14 -12 -7
3 -30 -6 -51 -20 -21 -14 -42 -26 -46 -26 -5 0 -8 -10 -6 -22 1 -17 -5 -23
-32 -30 -26 -7 -31 -12 -20 -19 8 -5 22 -9 32 -9 9 0 17 -7 17 -15 0 -9 -6
-15 -12 -14 -27 3 -38 -2 -38 -17 0 -11 6 -14 21 -9 17 6 20 3 19 -17 -5 -59
-1 -69 24 -62 20 5 25 1 29 -18 4 -19 4 -20 6 -3 1 23 63 61 80 51 6 -4 11
-16 11 -27 0 -10 5 -19 10 -19 6 0 10 -9 10 -19 0 -31 16 -33 36 -6 10 14 25
25 33 25 10 0 11 -4 3 -12 -14 -18 -4 -63 19 -84 28 -25 126 -32 142 -10 12
16 16 16 67 -3 30 -12 66 -21 80 -21 15 0 31 -5 37 -11 8 -8 25 -7 62 4 l51
15 -6 -27 c-4 -19 -3 -22 4 -12 8 12 16 10 44 -7 19 -12 37 -20 40 -17 6 7 71
-16 79 -27 3 -4 45 -10 93 -13 48 -3 91 -7 95 -9 8 -5 172 21 179 29 3 2 0 11
-7 19 -10 11 -7 16 16 23 20 7 -2 9 -76 7 -57 -2 -112 -6 -122 -9 -14 -5 -19
-1 -19 11 0 17 -1 17 -13 0 -12 -17 -21 -17 -113 -6 -54 6 -107 16 -116 21
-10 5 -26 9 -35 9 -14 0 -15 2 -4 9 7 5 84 8 170 6 104 -1 174 3 209 12 29 7
89 17 135 22 45 5 104 15 130 22 39 9 53 9 74 -2 21 -11 27 -11 30 -1 3 6 14
12 25 12 11 0 33 8 48 17 27 16 31 16 63 -2 45 -24 60 -17 74 36 6 24 15 52
19 63 6 15 4 17 -14 11 -16 -4 -22 -2 -22 8 0 18 -27 30 -43 20 -7 -4 -19 -8
-27 -8 -8 0 -14 -5 -13 -11 1 -6 -22 -18 -52 -27 -56 -16 -135 -12 -262 14
-47 9 -56 8 -103 -16 l-51 -26 -87 17 c-102 19 -113 20 -209 9 -71 -8 -73 -7
-73 15 0 17 4 21 17 16 9 -4 19 -2 23 4 3 5 20 11 37 13 18 2 39 9 47 16 9 7
22 11 30 8 8 -3 16 -1 19 6 3 9 10 9 28 0 16 -7 31 -8 42 -2 11 7 24 5 39 -5
21 -13 29 -13 81 2 34 10 55 22 53 29 -5 12 25 23 67 23 16 0 26 4 22 10 -3 6
-15 10 -26 10 -10 0 -20 6 -20 13 -4 29 1 61 10 66 5 3 12 23 16 44 6 30 12
37 30 37 30 0 85 20 85 31 0 5 11 15 25 21 25 11 31 32 17 55 -10 15 -113 37
-121 25 -3 -4 -28 -25 -55 -47 -37 -30 -47 -35 -43 -20 5 16 -2 25 -33 43 -44
25 -65 28 -77 10 -4 -7 -23 -21 -40 -31 -30 -17 -32 -17 -26 -1 4 12 3 15 -5
10 -7 -4 -12 -14 -12 -22 0 -22 -15 -17 -41 15 -36 43 -62 53 -96 39 -15 -6
-44 -13 -63 -15 -19 -3 -54 -11 -78 -19 -53 -18 -57 -18 -76 2 -10 10 -16 33
-16 64 0 31 -6 54 -16 64 -14 14 -14 17 -1 22 19 7 29 31 17 39 -6 4 -10 1
-10 -4z m104 -576 c-4 -8 -10 -15 -14 -15 -5 0 -15 -3 -24 -6 -10 -4 -16 -1
-16 9 0 14 16 23 47 26 7 0 10 -6 7 -14z m403 -261 c-3 -3 -12 -4 -19 -1 -8 3
-5 6 6 6 11 1 17 -2 13 -5z"/>
<path d="M2410 2130 c0 -5 5 -10 11 -10 5 0 7 5 4 10 -3 6 -8 10 -11 10 -2 0
-4 -4 -4 -10z"/>
<path d="M3706 2115 c25 -19 40 -19 24 0 -7 8 -20 15 -28 15 -13 0 -12 -3 4
-15z"/>
<path d="M2400 2080 c-13 -8 -12 -10 3 -10 9 0 17 5 17 10 0 12 -1 12 -20 0z"/>
<path d="M2990 2080 c0 -5 5 -10 10 -10 6 0 10 5 10 10 0 6 -4 10 -10 10 -5 0
-10 -4 -10 -10z"/>
<path d="M4180 2086 c0 -2 7 -9 15 -16 13 -11 14 -10 9 4 -5 14 -24 23 -24 12z"/>
<path d="M4065 2020 c-3 -5 -1 -10 4 -10 6 0 11 5 11 10 0 6 -2 10 -4 10 -3 0
-8 -4 -11 -10z"/>
<path d="M2420 1870 c-12 -8 -11 -10 8 -10 12 0 22 5 22 10 0 13 -11 13 -30 0z"/>
<path d="M2400 1839 c0 -5 5 -7 10 -4 6 3 10 8 10 11 0 2 -4 4 -10 4 -5 0 -10
-5 -10 -11z"/>
<path d="M3230 1623 c0 -6 -19 -13 -41 -16 -23 -3 -46 -10 -51 -15 -13 -13 8
-62 27 -62 8 0 20 -9 27 -20 7 -11 18 -20 24 -20 7 0 14 -7 18 -15 3 -8 14
-15 25 -15 11 0 22 -4 25 -9 3 -4 25 -11 48 -14 24 -4 63 -11 88 -18 57 -14
150 -12 170 5 8 7 30 19 48 26 18 7 36 18 40 24 4 6 15 16 25 21 10 6 26 22
35 37 19 32 10 47 -29 52 -14 1 -31 6 -39 11 -8 6 -31 10 -50 11 -19 0 -43 4
-53 9 -10 4 -35 4 -55 0 -57 -10 -165 -12 -184 -3 -11 5 -26 4 -39 -2 -16 -9
-25 -8 -40 6 -10 9 -19 12 -19 7z"/>
<path d="M2581 1541 c-11 -7 -9 -10 8 -16 25 -8 36 -2 26 14 -8 13 -15 14 -34
2z"/>
<path d="M2658 1543 c-10 -2 -18 -8 -18 -13 0 -12 33 -5 38 8 2 7 2 11 0 11
-1 -1 -11 -3 -20 -6z"/>
<path d="M2552 1480 c24 -33 38 -38 38 -14 0 18 -27 43 -48 44 -8 0 -5 -11 10
-30z"/>
<path d="M2687 1503 c-12 -11 -8 -23 8 -23 8 0 15 7 15 15 0 16 -12 20 -23 8z"/>
<path d="M2654 1476 c-6 -16 11 -46 27 -46 13 0 10 23 -6 44 -13 17 -15 18
-21 2z"/>
<path d="M2520 1449 c0 -5 5 -7 10 -4 6 3 10 8 10 11 0 2 -4 4 -10 4 -5 0 -10
-5 -10 -11z"/>
<path d="M2705 1451 c-10 -18 17 -23 33 -7 15 15 15 16 -5 16 -12 0 -24 -4
-28 -9z"/>
<path d="M2660 1396 c0 -13 5 -28 10 -31 6 -3 10 3 10 14 0 12 0 24 1 28 0 4
-4 9 -10 11 -6 2 -11 -8 -11 -22z"/>
<path d="M2586 1385 c-11 -8 -17 -17 -14 -20 8 -8 58 13 58 25 0 14 -22 12
-44 -5z"/>
<path d="M2748 1393 c7 -3 16 -2 19 1 4 3 -2 6 -13 5 -11 0 -14 -3 -6 -6z"/>
<path d="M2477 1363 c-10 -9 -8 -43 2 -43 5 0 11 11 13 25 5 24 -2 32 -15 18z"/>
<path d="M2517 1348 c-13 -13 -16 -23 -9 -30 15 -15 52 9 52 32 0 25 -20 24
-43 -2z"/>
<path d="M2595 1330 c-3 -5 -1 -10 4 -10 6 0 11 5 11 10 0 6 -2 10 -4 10 -3 0
-8 -4 -11 -10z"/>
<path d="M2495 1300 c-7 -12 2 -30 16 -30 12 0 12 27 0 35 -5 3 -12 1 -16 -5z"/>
<path d="M3225 1207 c-4 -10 -5 -21 -1 -24 10 -10 18 4 13 24 -4 17 -4 17 -12
0z"/>
<path d="M3734 1205 c-8 -21 6 -41 17 -24 12 19 11 39 -1 39 -6 0 -13 -7 -16
-15z"/>
<path d="M2643 1178 c2 -7 10 -13 17 -13 7 0 15 6 18 13 2 7 -5 12 -18 12 -13
0 -20 -5 -17 -12z"/>
<path d="M3675 1150 c-3 -5 -1 -10 4 -10 6 0 11 5 11 10 0 6 -2 10 -4 10 -3 0
-8 -4 -11 -10z"/>
<path d="M2530 1043 c0 -4 5 -15 10 -23 7 -11 12 -12 21 -3 8 8 6 14 -10 22
-12 7 -21 8 -21 4z"/>
<path d="M4063 698 c-6 -24 -23 -92 -38 -153 -41 -167 -85 -317 -99 -345 -8
-14 -28 -54 -47 -90 -18 -36 -41 -71 -51 -78 -32 -23 -20 -32 45 -32 69 0 70
1 147 103 45 60 93 192 111 307 30 182 -30 433 -68 288z"/>
<path d="M3758 713 c7 -3 16 -2 19 1 4 3 -2 6 -13 5 -11 0 -14 -3 -6 -6z"/>
</g>
</svg>
